<svg id="Layer_1" data-name="Layer 1" xmlns="http://www.w3.org/2000/svg" viewBox="0 0 80.59 37.11"><defs><style>.cls-1{fill:#fff;}</style></defs><title>logo [Converted]</title><path class="cls-1" d="M638.4,344.33q.2,0,.1.18-.42.8-.91,1.66l-1,1.77-1.07,1.82-1.08,1.79a2.54,2.54,0,0,0-.22.42,1,1,0,0,0-.08.36.56.56,0,0,0,.13.4.79.79,0,0,0,.34.21,1.72,1.72,0,0,0,.48.08h1.34q.42,0,.76,0c.08-.05.1-.11.06-.16l-.24,0h-.24a2.89,2.89,0,0,1-.71-.07,1.11,1.11,0,0,1-.41-.18.48.48,0,0,1-.18-.26,1.18,1.18,0,0,1,0-.31,2,2,0,0,1,.13-.53,5.58,5.58,0,0,1,.29-.63q.78-1.41,1.72-3t2.06-3.3a.48.48,0,0,1,.42-.2q.3,0,.68,0t.72,0A5.52,5.52,0,0,0,643,344a1.87,1.87,0,0,0,1-.79.64.64,0,0,0,.08-.28.4.4,0,0,0-.06-.24,2,2,0,0,0-.36-.52l-.06,0s-.06,0-.06.08a.08.08,0,0,0,0,.06.35.35,0,0,1,0,.14,1,1,0,0,1-.3.7,2.35,2.35,0,0,1-.6.48,5.49,5.49,0,0,1-2.54.54h-4.39a5.28,5.28,0,0,0-1.11.09,1.84,1.84,0,0,0-.83.38,3.59,3.59,0,0,0-.69.73,5.85,5.85,0,0,0-.55.93,9.51,9.51,0,0,0-.42,1,.27.27,0,0,0,.09.15s.06,0,.09,0a6.41,6.41,0,0,1,.91-1.62,3.51,3.51,0,0,1,1.12-.92,4.33,4.33,0,0,1,1.45-.42,16.07,16.07,0,0,1,1.9-.1Z" transform="translate(-585.51 -326.25)"/><path class="cls-1" d="M645.17,349.39q-.09,0-.13.06a3.62,3.62,0,0,1-.7.74,1.45,1.45,0,0,1-.93.34.77.77,0,0,1-.73-.36,1.79,1.79,0,0,1-.21-.91,3.63,3.63,0,0,1,.07-.74,1.65,1.65,0,0,1,.21-.56c0-.05,0-.09,0-.11a.11.11,0,0,0-.12,0l-.18.06-.2,0a.36.36,0,0,0-.28.25,3.27,3.27,0,0,0-.12.37,2.76,2.76,0,0,0-1.15.38,4.15,4.15,0,0,0-1,.77,4.22,4.22,0,0,0-.43.52,6.85,6.85,0,0,0-.43.68,4.52,4.52,0,0,0-.33.74,2.26,2.26,0,0,0-.13.74q0,.64.72.64a1.54,1.54,0,0,0,.6-.16,3.68,3.68,0,0,0,.78-.56,5.09,5.09,0,0,0,.67-.75,6.94,6.94,0,0,0,.52-.81q.22-.41.36-.73a1.29,1.29,0,0,0,.53.51,1.44,1.44,0,0,0,.67.17,1.78,1.78,0,0,0,1.1-.37,4.05,4.05,0,0,0,.82-.82C645.23,349.46,645.23,349.42,645.17,349.39Zm-3.56,1.05a7.16,7.16,0,0,1-.61,1,5.94,5.94,0,0,1-.76.88,1.13,1.13,0,0,1-.74.38.22.22,0,0,1-.23-.12.66.66,0,0,1,0-.26,2.27,2.27,0,0,1,.19-1,7.36,7.36,0,0,1,.47-.94,7,7,0,0,1,.44-.66,6.15,6.15,0,0,1,.48-.57,2.53,2.53,0,0,1,.48-.4.87.87,0,0,1,.46-.15c.05,0,.08,0,.08.1s0,.3,0,.46a3.08,3.08,0,0,0,.06.42A3,3,0,0,1,641.61,350.45Z" transform="translate(-585.51 -326.25)"/><path class="cls-1" d="M649.51,350.41a11.11,11.11,0,0,1-.92,1.17,9.24,9.24,0,0,1-.94.91,5.31,5.31,0,0,1-.84.59,1.46,1.46,0,0,1-.67.21q-.42,0-.42-.44a2.54,2.54,0,0,1,.16-.91,4.89,4.89,0,0,1,.39-.79,7.78,7.78,0,0,1,.5-.73q.27-.35.51-.71a.59.59,0,0,0,.08-.3.79.79,0,0,0-.1-.41c-.07-.11-.13-.17-.18-.17s-.09,0-.16.14l-.24.41-.34.59-.37.67-.37.67a5.29,5.29,0,0,1-.82,1,1,1,0,0,1-.55.31q-.22,0-.22-.3a1.51,1.51,0,0,1,.13-.51q.13-.33.34-.75t.49-.89q.28-.48.6-1a.62.62,0,0,0,.12-.24s0-.12-.15-.23a.41.41,0,0,0-.29-.17q-.08,0-.18.2-.52.89-.84,1.5t-.52,1a4.92,4.92,0,0,0-.26.65,1.47,1.47,0,0,0-.07.4.53.53,0,0,0,.14.41.5.5,0,0,0,.36.13,1.16,1.16,0,0,0,.51-.11,1.76,1.76,0,0,0,.42-.28,2.83,2.83,0,0,0,.34-.36l.27-.33a2.83,2.83,0,0,0-.17.51,1.94,1.94,0,0,0,0,.41.65.65,0,0,0,.72.74,2,2,0,0,0,1-.29,5.87,5.87,0,0,0,1-.73,10.12,10.12,0,0,0,1-1q.46-.53.79-1,0-.14-.12-.1Z" transform="translate(-585.51 -326.25)"/><path class="cls-1" d="M652.94,348.65a.53.53,0,0,0-.31-.09,1.36,1.36,0,0,0-.55.14,4.56,4.56,0,0,0-.63.35,6.78,6.78,0,0,0-.61.45q-.29.24-.49.44a.16.16,0,0,1-.1.06s0,0,0-.1l.12-.2.17-.29.16-.29a.54.54,0,0,0,.07-.2.31.31,0,0,0-.16-.28.62.62,0,0,0-.2-.1s-.07.06-.14.18a6,6,0,0,1-.3.55l-.51.86-.62,1.06-.65,1.12a.83.83,0,0,0-.14.36s0,.1.13.18.14.12.17.12.11,0,.12-.06q.28-.44.52-.86t.5-.83q.26-.41.55-.78a4.39,4.39,0,0,1,.67-.7,3,3,0,0,1,.56-.4,1.2,1.2,0,0,1,.58-.18.77.77,0,0,1,.34.06.73.73,0,0,1,.19.13l.11.13s0,.06.06.06a.08.08,0,0,0,.08-.06,2,2,0,0,1,.17-.3,3.22,3.22,0,0,1,.25-.34A.24.24,0,0,0,652.94,348.65Z" transform="translate(-585.51 -326.25)"/><path class="cls-1" d="M656,345.6a.57.57,0,0,0-.47.24.79.79,0,0,0-.19.5.21.21,0,0,0,.24.24.61.61,0,0,0,.47-.24.73.73,0,0,0,.21-.48.23.23,0,0,0-.26-.26Zm1.18,4.54s0,0-.11,0a7.69,7.69,0,0,1-.62.72,9.07,9.07,0,0,1-.86.79,6.82,6.82,0,0,1-.94.65,1.81,1.81,0,0,1-.87.27.52.52,0,0,1-.35-.11.43.43,0,0,1-.13-.35,2,2,0,0,1,.13-.6,7.18,7.18,0,0,1,.35-.82q.22-.45.49-.92t.53-.87a.33.33,0,0,0,.07-.12.38.38,0,0,0,0-.12s0-.06-.1-.06a1.1,1.1,0,0,0-.33.11.75.75,0,0,0-.35.27q-.16.22-.43.66t-.54.91q-.27.48-.47.92a1.88,1.88,0,0,0-.2.71.6.6,0,0,0,.09.35.72.72,0,0,0,.22.21.7.7,0,0,0,.29.1l.28,0a2.41,2.41,0,0,0,.76-.14,3.55,3.55,0,0,0,.81-.4,9.43,9.43,0,0,0,1.13-.89,9,9,0,0,0,1.09-1.17A.29.29,0,0,0,657.17,350.14Z" transform="translate(-585.51 -326.25)"/><path class="cls-1" d="M662.38,350.18a.09.09,0,0,0-.12,0,6.71,6.71,0,0,1-.72.91,8.09,8.09,0,0,1-.92.86,7.28,7.28,0,0,1-.94.65,1.68,1.68,0,0,1-.79.26.47.47,0,0,1-.32-.09.43.43,0,0,1-.1-.33,2.12,2.12,0,0,1,.2-.76,10.52,10.52,0,0,1,.49-1q.29-.53.61-1l.54-.81a.53.53,0,0,0,.1-.24.28.28,0,0,0-.07-.17.19.19,0,0,0-.15-.09,1,1,0,0,0-.43.21q-.31.21-.72.53l-.85.7-.82.72a9.57,9.57,0,0,1,.57-1.08,2.2,2.2,0,0,0,.29-.55.34.34,0,0,0-.32-.32.2.2,0,0,0-.18.1q-.24.56-.58,1.26l-.66,1.34-.55.69a.9.9,0,0,0-.25.49,1.29,1.29,0,0,0,.07.28q.07.22.17.22s.07,0,.12-.12q.34-.52.57-.93t.55-.91a6,6,0,0,1,.47-.5l.6-.55.61-.51a6.05,6.05,0,0,1,.52-.38c.07,0,.11,0,.13,0a.22.22,0,0,1,0,.17,8.6,8.6,0,0,1-.47.91l-.56,1q-.27.48-.47.9a1.77,1.77,0,0,0-.2.71.32.32,0,0,0,.2.35,1.32,1.32,0,0,0,.44.07,2.48,2.48,0,0,0,1.06-.26,6.12,6.12,0,0,0,1.07-.66,7.49,7.49,0,0,0,1-.9,10.82,10.82,0,0,0,.82-1Q662.46,350.21,662.38,350.18Z" transform="translate(-585.51 -326.25)"/><path class="cls-1" d="M666,347.25q-.07-.18-.15-.18t-.26.26l-.35.6-.33.56-.22,0a2.12,2.12,0,0,0-1,.24,3.74,3.74,0,0,0-1.05.79,8.72,8.72,0,0,0-.92,1.13,7.65,7.65,0,0,0-.66,1.14,2.25,2.25,0,0,0-.25.84.52.52,0,0,0,.12.38.4.4,0,0,0,.3.12,1,1,0,0,0,.54-.21,3.93,3.93,0,0,0,.63-.57q.33-.36.71-.83t.77-1l-.63,1.14-1,1.77-1.11,2.06-1.09,2a16.12,16.12,0,0,1-1.62,2.54,9.57,9.57,0,0,1-1.68,1.68,5.83,5.83,0,0,1-1.72.92,5.59,5.59,0,0,1-1.72.28,6.66,6.66,0,0,1-1.53-.17,4.13,4.13,0,0,1-1.24-.5,2.43,2.43,0,0,1-.82-.83,2.33,2.33,0,0,1-.3-1.2,2,2,0,0,1,0-.41q0-.19.08-.33c0-.07,0-.1-.06-.1s-.07,0-.08.08a2.17,2.17,0,0,0-.1.43,3.48,3.48,0,0,0,0,.51,4.42,4.42,0,0,0,.14,1.11,2.42,2.42,0,0,0,.49,1,2.4,2.4,0,0,0,1,.67,4.1,4.1,0,0,0,1.54.25,7.11,7.11,0,0,0,2.33-.37,7.7,7.7,0,0,0,2-1,9,9,0,0,0,1.65-1.53,16.77,16.77,0,0,0,1.38-1.9l1.47-2.39q.7-1.12,1.41-2.32t1.51-2.62q.79-1.42,1.79-3.27a.73.73,0,0,0,.1-.36A.94.94,0,0,0,666,347.25Zm-2,2.92q-.48.7-.92,1.25a9,9,0,0,1-.8.89q-.36.34-.48.34c-.08,0-.12-.07-.12-.22a2.61,2.61,0,0,1,.11-.59,5.29,5.29,0,0,1,.35-.9,7.48,7.48,0,0,1,.6-1,4.74,4.74,0,0,1,.85-.93.9.9,0,0,1,.43-.21,2.7,2.7,0,0,1,.53,0h.14l.16,0A11.91,11.91,0,0,1,664,350.17Z" transform="translate(-585.51 -326.25)"/><path class="cls-1" d="M600.08,330.44q.23-.65.59-1.48a12.18,12.18,0,0,1,.59-1.22.42.42,0,0,0-.26-.39,7.14,7.14,0,0,0-2.26-.86,12.17,12.17,0,0,0-2.39-.24,8.45,8.45,0,0,0-3,.54,9.84,9.84,0,0,0-2.6,1.45,13.27,13.27,0,0,0-1.87,1.76,16.36,16.36,0,0,0-1.67,2.24,13.33,13.33,0,0,0-1.22,2.5,7.42,7.42,0,0,0-.47,2.54,3.88,3.88,0,0,0,.39,1.84,3.15,3.15,0,0,0,1.06,1.17,4.36,4.36,0,0,0,1.53.62,8.88,8.88,0,0,0,1.8.18,11.43,11.43,0,0,0,5.38-1.28,10.53,10.53,0,0,0,4-3.53,3.4,3.4,0,0,0,.18-.34,1.06,1.06,0,0,0,.08-.44c0-.3,0-.46-.13-.46s-.1,0-.16.13a16.43,16.43,0,0,1-4.26,4.21,9,9,0,0,1-5,1.45,7,7,0,0,1-1.27-.11,3.11,3.11,0,0,1-1.09-.41,2.21,2.21,0,0,1-.76-.81,2.7,2.7,0,0,1-.29-1.33,8.59,8.59,0,0,1,.6-3.07,16.11,16.11,0,0,1,1.51-3,19.92,19.92,0,0,1,1.93-2.55,12.17,12.17,0,0,1,1.84-1.72,9,9,0,0,1,1.53-.89,4.15,4.15,0,0,1,1.76-.37,5.79,5.79,0,0,1,1.9.26,3.22,3.22,0,0,1,1.17.68,2.23,2.23,0,0,1,.6.94,3.38,3.38,0,0,1,.16,1,4.31,4.31,0,0,1,0,.6,2.37,2.37,0,0,1-.11.5Z" transform="translate(-585.51 -326.25)"/><path class="cls-1" d="M611.43,336.15s-.09,0-.13,0a24.51,24.51,0,0,1-1.64,1.85A21.23,21.23,0,0,1,608,339.6a9.11,9.11,0,0,1-1.53,1,2.77,2.77,0,0,1-1.24.37.72.72,0,0,1-.6-.2.79.79,0,0,1-.15-.49,6.37,6.37,0,0,1,.7-2.29q.7-1.54,2.19-4.18l.59,0a2.71,2.71,0,0,1,.59.1.09.09,0,0,0,.1-.1c0-.06-.05-.12-.16-.16l-.49-.06-.49,0,.31-.5a2.1,2.1,0,0,1,.31-.41l-.07,0-.91.26a1,1,0,0,0-.26.2,1.83,1.83,0,0,0-.29.46,5,5,0,0,0-2.63.76,10.56,10.56,0,0,0-2.26,1.82,9.71,9.71,0,0,0-1.58,2.19,4.37,4.37,0,0,0-.59,1.89.6.6,0,0,0,.68.68,2.13,2.13,0,0,0,1-.34,7.89,7.89,0,0,0,1.17-.85,12.29,12.29,0,0,0,1.14-1.12q.55-.62,1-1.17a8.62,8.62,0,0,0-.83,1.64,3.82,3.82,0,0,0-.28,1.22,1.26,1.26,0,0,0,.26.81,1.11,1.11,0,0,0,.91.33,3.67,3.67,0,0,0,1.64-.46,10,10,0,0,0,1.8-1.2,21.41,21.41,0,0,0,1.8-1.67q.89-.93,1.64-1.84A.17.17,0,0,0,611.43,336.15Zm-5-2.29-.88,1.56q-.49.88-1,1.66a10.49,10.49,0,0,1-1,1.27,11.58,11.58,0,0,1-1.06,1,9,9,0,0,1-.93.7,1.33,1.33,0,0,1-.6.26c-.13,0-.2-.09-.2-.26a4.29,4.29,0,0,1,.47-1.53,11.61,11.61,0,0,1,1.25-2.1,9.28,9.28,0,0,1,1.79-1.84,3.4,3.4,0,0,1,2.11-.78Z" transform="translate(-585.51 -326.25)"/><path class="cls-1" d="M616.58,333.81a.86.86,0,0,0-.5-.15,2.22,2.22,0,0,0-.89.23,7.47,7.47,0,0,0-1,.57,11.06,11.06,0,0,0-1,.73q-.47.39-.8.72a.27.27,0,0,1-.16.1s0-.05,0-.16l.2-.33.28-.47q.15-.24.26-.47a.88.88,0,0,0,.11-.33.51.51,0,0,0-.26-.46,1,1,0,0,0-.33-.16s-.12.1-.23.29a9.68,9.68,0,0,1-.49.89l-.83,1.41-1,1.74-1.06,1.84a1.35,1.35,0,0,0-.23.59c0,.06.07.16.21.29s.23.2.28.2.17,0,.2-.1q.45-.71.85-1.41T611,338q.42-.67.89-1.28a7.19,7.19,0,0,1,1.09-1.14,4.88,4.88,0,0,1,.91-.65,2,2,0,0,1,.94-.29,1.26,1.26,0,0,1,.55.1,1.19,1.19,0,0,1,.31.21,1.47,1.47,0,0,1,.18.21q.06.1.1.1a.13.13,0,0,0,.13-.1,3.18,3.18,0,0,1,.28-.49,5.3,5.3,0,0,1,.41-.55A.4.4,0,0,0,616.58,333.81Z" transform="translate(-585.51 -326.25)"/><path class="cls-1" d="M626.16,336.31a.15.15,0,0,0-.2,0,11,11,0,0,1-1.17,1.5,13.23,13.23,0,0,1-1.51,1.41,11.92,11.92,0,0,1-1.54,1.06,2.74,2.74,0,0,1-1.3.42.76.76,0,0,1-.52-.15.7.7,0,0,1-.16-.54,3.46,3.46,0,0,1,.33-1.24,17.2,17.2,0,0,1,.8-1.64q.47-.86,1-1.67t.88-1.33a.87.87,0,0,0,.16-.39.46.46,0,0,0-.11-.28.32.32,0,0,0-.24-.15,1.66,1.66,0,0,0-.7.34q-.5.34-1.17.86t-1.4,1.14q-.73.62-1.35,1.17a15.66,15.66,0,0,1,.93-1.77,3.61,3.61,0,0,0,.47-.89.56.56,0,0,0-.52-.52.32.32,0,0,0-.29.16q-.39.91-.94,2.06t-1.07,2.19l-.89,1.12a1.47,1.47,0,0,0-.41.8,2.1,2.1,0,0,0,.11.46q.11.36.28.36s.11-.06.2-.2q.55-.85.93-1.53t.89-1.5a9.78,9.78,0,0,1,.76-.81q.47-.45,1-.89t1-.83a10,10,0,0,1,.85-.62q.16-.1.21,0a.36.36,0,0,1,0,.28,14.09,14.09,0,0,1-.76,1.5l-.91,1.59q-.44.78-.76,1.48a2.89,2.89,0,0,0-.33,1.15.53.53,0,0,0,.33.57,2.16,2.16,0,0,0,.72.11,4.06,4.06,0,0,0,1.74-.42,10,10,0,0,0,1.76-1.07,12.25,12.25,0,0,0,1.63-1.48,17.69,17.69,0,0,0,1.35-1.64Q626.28,336.36,626.16,336.31Z" transform="translate(-585.51 -326.25)"/><path class="cls-1" d="M632.51,336.75a.13.13,0,0,0-.15,0,12.12,12.12,0,0,1-1.06,1.19,11.11,11.11,0,0,1-1.38,1.17,8.91,8.91,0,0,1-1.54.89,3.76,3.76,0,0,1-1.54.36q-1.2,0-1.2-1.33a4.35,4.35,0,0,1,.2-1.28,5.17,5.17,0,0,1,.36-.93,5.17,5.17,0,0,0,1.79-.28,4.16,4.16,0,0,0,1.24-.68,3,3,0,0,0,.73-.86,1.81,1.81,0,0,0,.24-.85.55.55,0,0,0-.18-.42,1,1,0,0,0-.63-.16,3.08,3.08,0,0,0-1.71.6,7.87,7.87,0,0,0-1.64,1.5,8.29,8.29,0,0,0-1.22,2,4.85,4.85,0,0,0-.47,2q0,1.37,1.53,1.37a5.22,5.22,0,0,0,1.9-.37,9.48,9.48,0,0,0,1.85-1,12.42,12.42,0,0,0,1.66-1.33,15.44,15.44,0,0,0,1.32-1.41A.13.13,0,0,0,632.51,336.75Zm-4-.83a2.36,2.36,0,0,1-1.66.67l-.26,0a.71.71,0,0,1-.23,0,7.3,7.3,0,0,1,.49-.88,8.49,8.49,0,0,1,.62-.85,3.61,3.61,0,0,1,.67-.63,1.15,1.15,0,0,1,.67-.24.37.37,0,0,1,.42.42A2.09,2.09,0,0,1,628.46,335.92Z" transform="translate(-585.51 -326.25)"/><path class="cls-1" d="M638.79,331.52q-.11-.29-.24-.29t-.42.42q-.29.52-.57,1l-.54.91a1.57,1.57,0,0,0-.36,0,3.46,3.46,0,0,0-1.56.39,6.12,6.12,0,0,0-1.72,1.3,14.26,14.26,0,0,0-1.51,1.85,12.53,12.53,0,0,0-1.07,1.87,3.69,3.69,0,0,0-.41,1.38.84.84,0,0,0,.2.62.66.66,0,0,0,.49.2,1.58,1.58,0,0,0,.88-.34,6.42,6.42,0,0,0,1-.93q.54-.59,1.15-1.37t1.27-1.66l-1,1.87-1.58,2.89L631,344.95l-1.79,3.32a26.38,26.38,0,0,1-2.65,4.16,15.65,15.65,0,0,1-2.75,2.75,9.55,9.55,0,0,1-2.81,1.51,9.14,9.14,0,0,1-2.81.46,10.89,10.89,0,0,1-2.5-.28,6.76,6.76,0,0,1-2-.81,4,4,0,0,1-1.35-1.37,3.81,3.81,0,0,1-.49-2,3.24,3.24,0,0,1,.07-.67q.07-.31.13-.54c0-.11,0-.16-.1-.16s-.11,0-.13.13a3.56,3.56,0,0,0-.16.7,5.71,5.71,0,0,0-.06.83,7.24,7.24,0,0,0,.23,1.82,4,4,0,0,0,.8,1.56,3.92,3.92,0,0,0,1.56,1.09,6.71,6.71,0,0,0,2.52.41,11.63,11.63,0,0,0,3.82-.6,12.6,12.6,0,0,0,3.22-1.66,14.7,14.7,0,0,0,2.7-2.5,27.44,27.44,0,0,0,2.26-3.11q1.27-2.08,2.41-3.92t2.31-3.8q1.17-2,2.47-4.29t2.93-5.35a1.2,1.2,0,0,0,.16-.59A1.53,1.53,0,0,0,638.79,331.52Zm-3.33,4.78q-.78,1.14-1.51,2a14.71,14.71,0,0,1-1.32,1.46q-.59.55-.78.55c-.13,0-.2-.12-.2-.36a4.26,4.26,0,0,1,.18-1,8.64,8.64,0,0,1,.57-1.48,12.25,12.25,0,0,1,1-1.66,7.76,7.76,0,0,1,1.4-1.53,1.46,1.46,0,0,1,.7-.34,4.41,4.41,0,0,1,.86-.08h.23a.86.86,0,0,1,.26,0A19.5,19.5,0,0,1,635.45,336.3Z" transform="translate(-585.51 -326.25)"/><path class="cls-1" d="M644.53,328.82a.94.94,0,0,0-.76.39,1.29,1.29,0,0,0-.31.81.34.34,0,0,0,.39.39,1,1,0,0,0,.76-.39,1.19,1.19,0,0,0,.34-.78.37.37,0,0,0-.42-.42Zm1.93,7.43q0-.08-.18.08a12.56,12.56,0,0,1-1,1.17,14.82,14.82,0,0,1-1.41,1.3,11.18,11.18,0,0,1-1.54,1.06,3,3,0,0,1-1.43.44.85.85,0,0,1-.57-.18.7.7,0,0,1-.21-.57,3.22,3.22,0,0,1,.21-1,11.74,11.74,0,0,1,.57-1.35q.36-.73.8-1.51t.86-1.43a.54.54,0,0,0,.11-.2.62.62,0,0,0,0-.2c0-.06-.05-.1-.16-.1a1.81,1.81,0,0,0-.54.18,1.22,1.22,0,0,0-.57.44q-.26.36-.7,1.07t-.88,1.5q-.44.78-.76,1.51a3.09,3.09,0,0,0-.33,1.15,1,1,0,0,0,.15.57,1.18,1.18,0,0,0,.36.34,1.15,1.15,0,0,0,.47.16l.46,0a3.94,3.94,0,0,0,1.24-.23,5.81,5.81,0,0,0,1.33-.65,15.42,15.42,0,0,0,1.85-1.46,14.78,14.78,0,0,0,1.79-1.92A.48.48,0,0,0,646.46,336.25Z" transform="translate(-585.51 -326.25)"/><path class="cls-1" d="M652.87,336.75a.13.13,0,0,0-.15,0,12.11,12.11,0,0,1-1.06,1.19,11.11,11.11,0,0,1-1.38,1.17,8.92,8.92,0,0,1-1.54.89,3.76,3.76,0,0,1-1.54.36q-1.2,0-1.2-1.33a4.35,4.35,0,0,1,.2-1.28,5.17,5.17,0,0,1,.36-.93,5.17,5.17,0,0,0,1.79-.28,4.16,4.16,0,0,0,1.24-.68,3,3,0,0,0,.73-.86,1.81,1.81,0,0,0,.24-.85.55.55,0,0,0-.18-.42,1,1,0,0,0-.63-.16,3.08,3.08,0,0,0-1.71.6,7.87,7.87,0,0,0-1.64,1.5,8.29,8.29,0,0,0-1.22,2,4.85,4.85,0,0,0-.47,2q0,1.37,1.53,1.37a5.22,5.22,0,0,0,1.9-.37,9.48,9.48,0,0,0,1.85-1,12.41,12.41,0,0,0,1.66-1.33,15.44,15.44,0,0,0,1.32-1.41A.13.13,0,0,0,652.87,336.75Zm-4-.83a2.36,2.36,0,0,1-1.66.67l-.26,0a.71.71,0,0,1-.23,0,7.32,7.32,0,0,1,.49-.88,8.49,8.49,0,0,1,.62-.85,3.61,3.61,0,0,1,.67-.63,1.15,1.15,0,0,1,.67-.24.37.37,0,0,1,.42.42A2.09,2.09,0,0,1,648.82,335.92Z" transform="translate(-585.51 -326.25)"/></svg>