<svg id="Layer_1" data-name="Layer 1" xmlns="http://www.w3.org/2000/svg" viewBox="0 0 63.37 14.78"><defs><style>.cls-1{fill:#fff;}</style></defs><title>sub [Converted]</title><path class="cls-1" d="M584.22,446.83a8.19,8.19,0,0,1-.91.26,8.48,8.48,0,0,1-.93.16,7.24,7.24,0,0,1-.77.05q-.89,0-.89-.59a1.31,1.31,0,0,1,.13-.51q.16-.39.38-.8l.43-.79a.14.14,0,0,1,.14-.07h1.83l.71,0q.09,0,.1-.05l.06-.14.06-.12,0,0a5.73,5.73,0,0,1-.87.13q-.43,0-1,0h-.71q-.13,0-.08-.11.3-.54.64-1.11t.68-1a.36.36,0,0,1,.3-.12l.9,0a8.15,8.15,0,0,1,.84.09.14.14,0,0,1,.07.07.31.31,0,0,1,0,.14h0q.06-.14.14-.27l.1-.19s0-.06-.07-.06h-.73l-.84,0-.76,0h-1.29l-.82,0a.5.5,0,0,0-.1.29h0a3.6,3.6,0,0,1,.66-.1l.75,0s.08,0,.08.05a1.42,1.42,0,0,1-.14.33L582,443l-.35.64-.22.39a.53.53,0,0,1-.43.3q-.15,0-.15.11s0,0,.06,0h.18a0,0,0,0,1,0,.05l-.15.28-.34.6-.36.63-.23.39a1,1,0,0,0-.14.48.38.38,0,0,0,.06.22.49.49,0,0,0,.23.16,1.78,1.78,0,0,0,.47.1q.3,0,.77,0l.69,0,.74-.08.74-.11.67-.13a.5.5,0,0,0,.35-.23l.12-.17a.88.88,0,0,1,.14-.16c0-.05,0-.07-.05-.05A2.53,2.53,0,0,1,584.22,446.83Z" transform="translate(-579.96 -438.95)"/><path class="cls-1" d="M588.52,446.31a.07.07,0,0,0-.06,0,6,6,0,0,1-.53.5,3.79,3.79,0,0,1-.41.29,1.14,1.14,0,0,1-.3.14l-.2,0a.49.49,0,0,1-.37-.11.54.54,0,0,1-.1-.36q0-.11,0-.37a3.45,3.45,0,0,1,.09-.51l.54-.3.53-.3a3,3,0,0,0,.4-.29.37.37,0,0,0,.16-.25.17.17,0,0,0-.11-.16l-.17-.07,0,0a.18.18,0,0,1,0,.07.73.73,0,0,1-.37.56q-.37.27-.92.59l.18-.54L587,445l.06-.18a.31.31,0,0,0,0-.09q0-.11-.14-.11l-.17,0-.26.07-.27.09-.24.09,0,.05a0,0,0,0,0,0,0l.19-.06.19,0q.14,0,.14.18a1.12,1.12,0,0,1,0,.16q0,.11,0,.26l-.07.29-.08.27a6.21,6.21,0,0,0-1.67,1.32,2.21,2.21,0,0,0-.57,1.43,2.07,2.07,0,0,0,.13.78,1.48,1.48,0,0,0,.35.53,1.33,1.33,0,0,0,.51.3,2,2,0,0,0,.61.09,2.61,2.61,0,0,0,1-.21,3.7,3.7,0,0,0,.94-.61s0-.07,0-.09a.06.06,0,0,0-.09,0,2.37,2.37,0,0,1-.72.51,1.94,1.94,0,0,1-.82.19,1.58,1.58,0,0,1-1.21-.47,1.63,1.63,0,0,1-.44-1.16,2.33,2.33,0,0,1,.1-.69,2,2,0,0,1,.33-.62,3.7,3.7,0,0,1,.58-.6,6.68,6.68,0,0,1,.88-.61l-.11.48a2.07,2.07,0,0,0-.06.39.64.64,0,0,0,.11.41.43.43,0,0,0,.36.13,1.92,1.92,0,0,0,.85-.25,4.5,4.5,0,0,0,1.13-.93S588.55,446.31,588.52,446.31Z" transform="translate(-579.96 -438.95)"/><path class="cls-1" d="M591.63,445.56s-.05,0-.09,0a6.37,6.37,0,0,1-1.27,1.23,1.88,1.88,0,0,1-.94.41.48.48,0,0,1-.5-.53,2.34,2.34,0,0,1,.1-.68,2.24,2.24,0,0,1,.27-.59,1.54,1.54,0,0,1,.39-.41.77.77,0,0,1,.46-.16.36.36,0,0,1,.29.11.37.37,0,0,1,.09.24.6.6,0,0,1,0,.21h0l.25-.21a.42.42,0,0,0,.09-.29q0-.36-.46-.36a.68.68,0,0,0-.25.06,2.79,2.79,0,0,0-.93.67,3.31,3.31,0,0,0-.67,1,1.28,1.28,0,0,0-.1.47q0,.58.69.58l.29,0a2,2,0,0,0,.34-.11,3,3,0,0,0,.5-.27,4.94,4.94,0,0,0,.51-.39q.25-.22.49-.46a6.2,6.2,0,0,0,.43-.48S591.65,445.58,591.63,445.56Z" transform="translate(-579.96 -438.95)"/><path class="cls-1" d="M596.87,439a.23.23,0,0,0-.16-.06,1.54,1.54,0,0,0-.54.21,5.14,5.14,0,0,0-.87.61,3.75,3.75,0,0,0-.57.57q-.23.29-.44.61t-.38.61l-.43.72-.46.77-.44.76-.39.63q-.26.41-.52.88t-.46.88a1.7,1.7,0,0,0-.19.64.54.54,0,0,0,.14.38.61.61,0,0,0,.47.16,1.76,1.76,0,0,0,.75-.18,3.9,3.9,0,0,0,.72-.44,6.06,6.06,0,0,0,.65-.57q.31-.31.53-.59a.1.1,0,0,0,0-.09s0,0-.1,0-.28.32-.46.51a6.35,6.35,0,0,1-.58.53,3.73,3.73,0,0,1-.64.42,1.41,1.41,0,0,1-.65.18q-.36,0-.36-.4a1.72,1.72,0,0,1,.14-.61,8.11,8.11,0,0,1,.34-.74q.19-.37.39-.71l.31-.54a8,8,0,0,0,1.2-.81,10.31,10.31,0,0,0,1-1,10.6,10.6,0,0,0,.84-1,10.86,10.86,0,0,0,.63-.95,6.56,6.56,0,0,0,.39-.78,1.51,1.51,0,0,0,.14-.51A.22.22,0,0,0,596.87,439Zm-.77,1.51a6.92,6.92,0,0,1-.75,1.24,9.13,9.13,0,0,1-1.13,1.24,7.56,7.56,0,0,1-1.41,1l.93-1.49.68-1.06.46-.69.28-.4.43-.55a4,4,0,0,1,.29-.33.85.85,0,0,1,.19-.16.31.31,0,0,1,.14,0q.16,0,.16.2A2.54,2.54,0,0,1,596.1,440.51Z" transform="translate(-579.96 -438.95)"/><path class="cls-1" d="M597.3,445.76a7,7,0,0,1-.58.74,5.81,5.81,0,0,1-.59.57,3.34,3.34,0,0,1-.53.37.92.92,0,0,1-.42.13q-.26,0-.26-.27a1.6,1.6,0,0,1,.1-.57,3.07,3.07,0,0,1,.24-.5,4.9,4.9,0,0,1,.31-.46q.17-.22.32-.44a.37.37,0,0,0,.05-.19.5.5,0,0,0-.06-.26q-.06-.11-.11-.11s-.06,0-.1.09l-.15.26-.21.37-.23.42-.23.42a3.33,3.33,0,0,1-.52.66.62.62,0,0,1-.34.19q-.14,0-.14-.19a1,1,0,0,1,.08-.32q.08-.21.21-.47t.31-.56q.17-.3.38-.6a.39.39,0,0,0,.07-.15s0-.07-.09-.14a.26.26,0,0,0-.18-.11s-.07,0-.11.13q-.33.56-.53.94t-.33.64a3.09,3.09,0,0,0-.16.41.92.92,0,0,0,0,.25.33.33,0,0,0,.09.26.32.32,0,0,0,.23.08.73.73,0,0,0,.32-.07,1.11,1.11,0,0,0,.26-.18,1.78,1.78,0,0,0,.21-.23l.17-.21a1.78,1.78,0,0,0-.11.32,1.22,1.22,0,0,0,0,.26.41.41,0,0,0,.45.46,1.27,1.27,0,0,0,.61-.18,3.69,3.69,0,0,0,.64-.46,6.36,6.36,0,0,0,.6-.61q.29-.33.5-.63,0-.09-.08-.06Z" transform="translate(-579.96 -438.95)"/><path class="cls-1" d="M598.62,444.89l.07-.14q0-.12-.2-.12a.83.83,0,0,0-.38.1,1.74,1.74,0,0,0-.36.24,1.38,1.38,0,0,0-.27.32.63.63,0,0,0-.11.32.52.52,0,0,0,.08.27l.15.25a1.79,1.79,0,0,1,.14.25.72.72,0,0,1,.06.3.58.58,0,0,1-.09.34.65.65,0,0,1-.21.19.69.69,0,0,1-.26.09l-.24,0a.59.59,0,0,1-.41-.16.82.82,0,0,1-.24-.39s0-.05,0-.05a.51.51,0,0,1-.12.11l-.14.09q.08.51.84.51a1.78,1.78,0,0,0,.34,0,1.32,1.32,0,0,0,.42-.17,1.22,1.22,0,0,0,.36-.33.88.88,0,0,0,.15-.53.61.61,0,0,0-.09-.31l-.19-.3-.18-.26a.37.37,0,0,1-.06-.2.32.32,0,0,1,.18-.3.7.7,0,0,1,.35-.1.31.31,0,0,1,.31.16s0,0,.06,0Z" transform="translate(-579.96 -438.95)"/><path class="cls-1" d="M601.17,442.74a.36.36,0,0,0-.29.15.5.5,0,0,0-.12.31.13.13,0,0,0,.15.15.39.39,0,0,0,.29-.15.46.46,0,0,0,.13-.3.14.14,0,0,0-.16-.16Zm.74,2.86s0,0-.07,0a4.83,4.83,0,0,1-.39.45,5.7,5.7,0,0,1-.54.5,4.3,4.3,0,0,1-.59.41,1.14,1.14,0,0,1-.55.17.33.33,0,0,1-.22-.07.27.27,0,0,1-.08-.22,1.24,1.24,0,0,1,.08-.37,4.52,4.52,0,0,1,.22-.52q.14-.28.31-.58t.33-.55a.21.21,0,0,0,0-.08.24.24,0,0,0,0-.07s0,0-.06,0a.7.7,0,0,0-.21.07.47.47,0,0,0-.22.17q-.1.14-.27.41l-.34.57q-.17.3-.29.58a1.19,1.19,0,0,0-.12.44.38.38,0,0,0,.06.22.45.45,0,0,0,.14.13.44.44,0,0,0,.18.06h.17a1.52,1.52,0,0,0,.48-.09,2.23,2.23,0,0,0,.51-.25,5.93,5.93,0,0,0,.71-.56,5.68,5.68,0,0,0,.69-.74A.18.18,0,0,0,601.92,445.59Z" transform="translate(-579.96 -438.95)"/><path class="cls-1" d="M603.77,444.35a.46.46,0,0,0-.35-.21h-.09s0,0,0,0,.18.31.15.64a2.2,2.2,0,0,1-.21.76,2.53,2.53,0,0,1-.43.63,2.92,2.92,0,0,1-.59.49,3.41,3.41,0,0,1-.69.33s0,0,0,0a2.63,2.63,0,0,0,.35-.34,1.27,1.27,0,0,0,.25-.41,1.43,1.43,0,0,0,.06-.22l.07-.34.08-.39a1.69,1.69,0,0,1,.11-.34.35.35,0,0,1,.1-.14l.11-.09s0,0,0,0a3.65,3.65,0,0,1-.54.11l-.59.09q-.13,0,0,.09l.36-.06c.07,0,.11,0,.12,0s0,.08,0,.18a.94.94,0,0,0-.06.17q0,.13-.06.28l-.05.32q0,.17,0,.31a1.53,1.53,0,0,1-.29.77.72.72,0,0,1-.48.22s0,0,0,0l.2.2a.93.93,0,0,0,.39-.13,5,5,0,0,0,.54-.34,7.11,7.11,0,0,0,.6-.47,6.34,6.34,0,0,0,.56-.55,4.17,4.17,0,0,0,.42-.56,1.11,1.11,0,0,0,.19-.52A.68.68,0,0,0,603.77,444.35Z" transform="translate(-579.96 -438.95)"/><path class="cls-1" d="M607.08,445.79a0,0,0,0,0-.06,0,4.66,4.66,0,0,1-.41.46,4.27,4.27,0,0,1-.53.45,3.43,3.43,0,0,1-.59.34,1.44,1.44,0,0,1-.59.14q-.46,0-.46-.51a1.67,1.67,0,0,1,.08-.49,2,2,0,0,1,.14-.36,2,2,0,0,0,.69-.11,1.6,1.6,0,0,0,.47-.26,1.13,1.13,0,0,0,.28-.33.69.69,0,0,0,.09-.32.21.21,0,0,0-.07-.16.37.37,0,0,0-.24-.06,1.18,1.18,0,0,0-.66.23,3,3,0,0,0-.63.58,3.19,3.19,0,0,0-.47.75,1.87,1.87,0,0,0-.18.76q0,.53.59.53a2,2,0,0,0,.73-.14,3.64,3.64,0,0,0,.71-.37,4.77,4.77,0,0,0,.64-.51,5.94,5.94,0,0,0,.51-.54A0,0,0,0,0,607.08,445.79Zm-1.56-.32a.91.91,0,0,1-.64.26h-.1l-.09,0a2.81,2.81,0,0,1,.19-.34,3.26,3.26,0,0,1,.24-.32,1.39,1.39,0,0,1,.26-.24.44.44,0,0,1,.26-.09.14.14,0,0,1,.16.16A.8.8,0,0,1,605.52,445.47Z" transform="translate(-579.96 -438.95)"/><path class="cls-1" d="M612.63,445.29a0,0,0,0,0,0,0,4.25,4.25,0,0,1-.85.86,4.57,4.57,0,0,1-.9.53,4.24,4.24,0,0,1-.87.27q-.42.08-.76.12a5.05,5.05,0,0,0,1.06-.65,4.54,4.54,0,0,0,.68-.68,2.51,2.51,0,0,0,.36-.59,1.18,1.18,0,0,0,.11-.39.33.33,0,0,0-.08-.25.29.29,0,0,0-.21-.07.59.59,0,0,0-.27.08,1.86,1.86,0,0,0-.3.21l-.3.28-.27.29.32-.46q.16-.21.33-.42L611,444q.2-.22.46-.46a.14.14,0,0,0,.05-.09s0,0,0,0h-.08l-.14,0-.15,0-.1,0a.31.31,0,0,0-.14.08,10.84,10.84,0,0,0-.83,1.25q-.4.7-.8,1.35l-.58.94-.13,0a.08.08,0,0,0-.08.09c0,.07,0,.12.08.14l-.84,1.42-.79,1.33-.68,1.14-.52.87q-.21.34-.37.56a2.41,2.41,0,0,1-.34.39,2,2,0,0,1-.41.28,5.19,5.19,0,0,1-.55.24c-.05,0-.07,0-.06.08s0,0,.09,0a5.41,5.41,0,0,1,.58-.18l.46-.12a2,2,0,0,0,.35-.14.6.6,0,0,0,.24-.23q.45-.78.84-1.56t.86-1.68l.65-1.21q.33-.61.69-1.22l.42-.07.5-.1a6.26,6.26,0,0,0,1.58-.59,4.64,4.64,0,0,0,1.42-1.24S612.65,445.3,612.63,445.29Zm-1.88.26a3,3,0,0,1-.44.63,4,4,0,0,1-.65.57,2.46,2.46,0,0,1-.78.38l.4-.71q.2-.34.41-.64a3.74,3.74,0,0,1,.31-.39,2.84,2.84,0,0,1,.31-.29l.27-.19a.41.41,0,0,1,.18-.07q.11,0,.13.07a.53.53,0,0,1,0,.13A1.19,1.19,0,0,1,610.75,445.55Z" transform="translate(-579.96 -438.95)"/><path class="cls-1" d="M614.47,444.66a.33.33,0,0,0-.19-.06.85.85,0,0,0-.34.09,2.87,2.87,0,0,0-.39.22,4.26,4.26,0,0,0-.38.28l-.31.28-.06,0s0,0,0-.06l.07-.12.11-.18.1-.18a.34.34,0,0,0,0-.12.2.2,0,0,0-.1-.17l-.12-.06s0,0-.09.11a3.74,3.74,0,0,1-.19.34l-.32.54-.39.67-.41.71a.52.52,0,0,0-.09.22s0,.06.08.11.09.07.11.07.07,0,.07,0q.17-.27.33-.54t.31-.52q.16-.26.34-.49a2.76,2.76,0,0,1,.42-.44,1.88,1.88,0,0,1,.35-.25.75.75,0,0,1,.36-.11.49.49,0,0,1,.21,0l.12.08.07.08,0,0a0,0,0,0,0,0,0,1.22,1.22,0,0,1,.11-.19l.16-.21A.15.15,0,0,0,614.47,444.66Z" transform="translate(-579.96 -438.95)"/><path class="cls-1" d="M616.38,442.74a.36.36,0,0,0-.29.15.5.5,0,0,0-.12.31.13.13,0,0,0,.15.15.39.39,0,0,0,.29-.15.46.46,0,0,0,.13-.3.14.14,0,0,0-.16-.16Zm.74,2.86s0,0-.07,0a4.83,4.83,0,0,1-.39.45,5.7,5.7,0,0,1-.54.5,4.3,4.3,0,0,1-.59.41,1.14,1.14,0,0,1-.55.17.33.33,0,0,1-.22-.07.27.27,0,0,1-.08-.22,1.24,1.24,0,0,1,.08-.37A4.51,4.51,0,0,1,615,446q.14-.28.31-.58t.33-.55a.21.21,0,0,0,0-.08.24.24,0,0,0,0-.07s0,0-.06,0a.69.69,0,0,0-.21.07.47.47,0,0,0-.22.17q-.1.14-.27.41l-.34.57q-.17.3-.29.58a1.19,1.19,0,0,0-.12.44.38.38,0,0,0,.06.22.45.45,0,0,0,.14.13.44.44,0,0,0,.18.06h.17a1.52,1.52,0,0,0,.48-.09,2.23,2.23,0,0,0,.51-.25,5.93,5.93,0,0,0,.71-.56,5.68,5.68,0,0,0,.69-.74A.18.18,0,0,0,617.13,445.59Z" transform="translate(-579.96 -438.95)"/><path class="cls-1" d="M619,444.35a.46.46,0,0,0-.35-.21h-.09s0,0,0,0,.18.31.15.64a2.2,2.2,0,0,1-.21.76,2.53,2.53,0,0,1-.43.63,2.92,2.92,0,0,1-.59.49,3.41,3.41,0,0,1-.69.33s0,0,0,0a2.63,2.63,0,0,0,.35-.34,1.27,1.27,0,0,0,.25-.41,1.42,1.42,0,0,0,.06-.22l.07-.34.08-.39a1.7,1.7,0,0,1,.11-.34.35.35,0,0,1,.1-.14l.11-.09s0,0,0,0a3.65,3.65,0,0,1-.54.11l-.59.09q-.13,0,0,.09l.36-.06c.07,0,.11,0,.12,0s0,.08,0,.18a1,1,0,0,0-.06.17q0,.13-.06.28l0,.32q0,.17,0,.31a1.53,1.53,0,0,1-.29.77.72.72,0,0,1-.48.22s0,0,0,0l.2.2a.93.93,0,0,0,.39-.13,5,5,0,0,0,.54-.34,7.08,7.08,0,0,0,.6-.47,6.33,6.33,0,0,0,.56-.55,4.17,4.17,0,0,0,.43-.56,1.11,1.11,0,0,0,.19-.52A.68.68,0,0,0,619,444.35Z" transform="translate(-579.96 -438.95)"/><path class="cls-1" d="M623.45,445.56s0,0-.05,0a9.42,9.42,0,0,1-.63.71,8.16,8.16,0,0,1-.64.59,3.5,3.5,0,0,1-.59.4,1.07,1.07,0,0,1-.48.14.28.28,0,0,1-.23-.07.3.3,0,0,1-.06-.19,2.45,2.45,0,0,1,.27-.88q.27-.59.84-1.61h.23l.22,0a0,0,0,0,0,0,0s0,0-.06-.06l-.19,0h-.19l.12-.19a.81.81,0,0,1,.12-.16h0l-.35.1-.1.08a.7.7,0,0,0-.11.17,1.94,1.94,0,0,0-1,.29,4.06,4.06,0,0,0-.87.7,3.73,3.73,0,0,0-.61.84,1.68,1.68,0,0,0-.23.72.23.23,0,0,0,.26.26.82.82,0,0,0,.4-.13,3,3,0,0,0,.45-.32,4.73,4.73,0,0,0,.44-.43q.21-.24.38-.45a3.31,3.31,0,0,0-.32.63,1.47,1.47,0,0,0-.11.47.48.48,0,0,0,.1.31.43.43,0,0,0,.35.13,1.41,1.41,0,0,0,.63-.18,3.86,3.86,0,0,0,.69-.46,8.23,8.23,0,0,0,.69-.64q.34-.36.63-.71A.07.07,0,0,0,623.45,445.56Zm-1.91-.88-.34.6q-.19.34-.39.64a4,4,0,0,1-.38.49,4.45,4.45,0,0,1-.41.39,3.47,3.47,0,0,1-.36.27.51.51,0,0,1-.23.1s-.07,0-.07-.1a1.65,1.65,0,0,1,.18-.59,4.47,4.47,0,0,1,.48-.81,3.57,3.57,0,0,1,.69-.71,1.31,1.31,0,0,1,.81-.3Z" transform="translate(-579.96 -438.95)"/><path class="cls-1" d="M625.68,442.71s0,0,0,0l-.43.16-.38.16-.26.41-.28.45-.27.46-.25.42h-.64a.62.62,0,0,0-.16.18s0,.05.06.05l.26,0,.37,0a12,12,0,0,0-.66,1.2,2,2,0,0,0-.23.74.49.49,0,0,0,.15.41.55.55,0,0,0,.35.12,2.25,2.25,0,0,0,.74-.12,3.69,3.69,0,0,0,.79-.4s.05,0,0-.07-.05,0-.08,0a4,4,0,0,1-.54.28,1.21,1.21,0,0,1-.46.11q-.41,0-.41-.45a2,2,0,0,1,.19-.76,11.64,11.64,0,0,1,.54-1.06l.44,0,.49,0,.44,0h.3a0,0,0,0,0,0,0s0,0,0-.05h-1.55q.25-.44.52-.87t.56-.84a.5.5,0,0,1,.19-.17,1,1,0,0,1,.23-.09S625.69,442.73,625.68,442.71Z" transform="translate(-579.96 -438.95)"/><path class="cls-1" d="M628.33,445.79a0,0,0,0,0-.06,0,4.66,4.66,0,0,1-.41.46,4.27,4.27,0,0,1-.53.45,3.43,3.43,0,0,1-.59.34,1.44,1.44,0,0,1-.59.14q-.46,0-.46-.51a1.67,1.67,0,0,1,.08-.49,2,2,0,0,1,.14-.36,2,2,0,0,0,.69-.11,1.6,1.6,0,0,0,.48-.26,1.13,1.13,0,0,0,.28-.33.69.69,0,0,0,.09-.32.21.21,0,0,0-.07-.16.37.37,0,0,0-.24-.06,1.18,1.18,0,0,0-.66.23,3,3,0,0,0-.63.58,3.19,3.19,0,0,0-.47.75,1.87,1.87,0,0,0-.18.76q0,.53.59.53a2,2,0,0,0,.73-.14,3.64,3.64,0,0,0,.71-.37,4.77,4.77,0,0,0,.64-.51,5.94,5.94,0,0,0,.51-.54A0,0,0,0,0,628.33,445.79Zm-1.56-.32a.91.91,0,0,1-.64.26H626l-.09,0a2.81,2.81,0,0,1,.19-.34,3.26,3.26,0,0,1,.24-.32,1.39,1.39,0,0,1,.26-.24.44.44,0,0,1,.26-.09.14.14,0,0,1,.16.16A.8.8,0,0,1,626.77,445.47Z" transform="translate(-579.96 -438.95)"/><path class="cls-1" d="M633.22,442.71s0,0,0,0l-.43.16-.38.16-.26.41-.28.45-.27.46-.25.42h-.64a.62.62,0,0,0-.16.18s0,.05.06.05l.26,0,.37,0a12,12,0,0,0-.66,1.2,2,2,0,0,0-.23.74.49.49,0,0,0,.15.41.55.55,0,0,0,.35.12,2.25,2.25,0,0,0,.74-.12,3.69,3.69,0,0,0,.79-.4s.05,0,0-.07,0,0-.07,0a4,4,0,0,1-.54.28,1.21,1.21,0,0,1-.46.11q-.41,0-.41-.45a2,2,0,0,1,.19-.76,11.64,11.64,0,0,1,.54-1.06l.44,0,.49,0,.44,0h.3a0,0,0,0,0,0,0s0,0,0-.05H631.7q.25-.44.52-.87t.56-.84a.5.5,0,0,1,.19-.17,1,1,0,0,1,.23-.09S633.23,442.73,633.22,442.71Z" transform="translate(-579.96 -438.95)"/><path class="cls-1" d="M636.89,445.13s-.06,0-.08,0a2.28,2.28,0,0,1-.44.46.91.91,0,0,1-.59.21.48.48,0,0,1-.46-.23,1.13,1.13,0,0,1-.13-.57,2.29,2.29,0,0,1,0-.46,1,1,0,0,1,.13-.35s0-.06,0-.07a.07.07,0,0,0-.07,0l-.11,0-.12,0a.23.23,0,0,0-.17.16,2.06,2.06,0,0,0-.08.23,1.73,1.73,0,0,0-.72.24,2.61,2.61,0,0,0-.6.49,2.65,2.65,0,0,0-.27.32,4.3,4.3,0,0,0-.27.43,2.85,2.85,0,0,0-.21.46,1.42,1.42,0,0,0-.08.46q0,.4.45.4a1,1,0,0,0,.38-.1A2.32,2.32,0,0,0,634,447a3.2,3.2,0,0,0,.42-.47,4.36,4.36,0,0,0,.32-.51q.14-.26.23-.46a.81.81,0,0,0,.33.32.9.9,0,0,0,.42.11,1.12,1.12,0,0,0,.69-.23,2.55,2.55,0,0,0,.52-.52S636.93,445.14,636.89,445.13Zm-2.24.66a4.5,4.5,0,0,1-.38.64,3.73,3.73,0,0,1-.48.56.71.71,0,0,1-.46.24.14.14,0,0,1-.14-.07.42.42,0,0,1,0-.16,1.43,1.43,0,0,1,.12-.61,4.63,4.63,0,0,1,.29-.59,4.43,4.43,0,0,1,.27-.41,3.88,3.88,0,0,1,.3-.36,1.59,1.59,0,0,1,.3-.25.54.54,0,0,1,.29-.09s.05,0,.05.06,0,.19,0,.29a1.94,1.94,0,0,0,0,.26A1.91,1.91,0,0,1,634.65,445.79Z" transform="translate(-579.96 -438.95)"/><path class="cls-1" d="M639.62,445.76a7,7,0,0,1-.58.74,5.81,5.81,0,0,1-.59.57,3.34,3.34,0,0,1-.53.37.92.92,0,0,1-.42.13q-.26,0-.26-.27a1.6,1.6,0,0,1,.1-.57,3.07,3.07,0,0,1,.24-.5,4.9,4.9,0,0,1,.31-.46q.17-.22.32-.44a.37.37,0,0,0,.05-.19.5.5,0,0,0-.06-.26q-.06-.11-.11-.11s-.06,0-.1.09l-.15.26-.21.37-.23.42-.23.42a3.33,3.33,0,0,1-.52.66.62.62,0,0,1-.34.19q-.14,0-.14-.19a1,1,0,0,1,.08-.32q.08-.21.21-.47t.31-.56q.17-.3.38-.6a.39.39,0,0,0,.07-.15s0-.07-.09-.14a.26.26,0,0,0-.18-.11s-.07,0-.11.13q-.33.56-.53.94t-.32.64a3.09,3.09,0,0,0-.16.41.92.92,0,0,0,0,.25.33.33,0,0,0,.09.26.32.32,0,0,0,.23.08.73.73,0,0,0,.32-.07,1.11,1.11,0,0,0,.26-.18,1.78,1.78,0,0,0,.21-.23l.17-.21a1.78,1.78,0,0,0-.11.32,1.22,1.22,0,0,0,0,.26.41.41,0,0,0,.45.46,1.27,1.27,0,0,0,.61-.18,3.69,3.69,0,0,0,.64-.46,6.36,6.36,0,0,0,.6-.61q.29-.33.5-.63,0-.09-.08-.06Z" transform="translate(-579.96 -438.95)"/><path class="cls-1" d="M641.78,444.66a.33.33,0,0,0-.19-.06.85.85,0,0,0-.34.09,2.87,2.87,0,0,0-.39.22,4.27,4.27,0,0,0-.38.28l-.31.28-.06,0s0,0,0-.06l.08-.12.11-.18.1-.18a.34.34,0,0,0,0-.12.2.2,0,0,0-.1-.17l-.12-.06s0,0-.09.11a3.74,3.74,0,0,1-.19.34l-.32.54-.39.67-.41.71a.52.52,0,0,0-.09.22s0,.06.08.11.09.07.11.07.07,0,.08,0q.17-.27.32-.54t.31-.52q.16-.26.34-.49a2.76,2.76,0,0,1,.42-.44,1.88,1.88,0,0,1,.35-.25.75.75,0,0,1,.36-.11.49.49,0,0,1,.21,0l.12.08.07.08,0,0a0,0,0,0,0,.05,0,1.22,1.22,0,0,1,.11-.19l.16-.21A.15.15,0,0,0,641.78,444.66Z" transform="translate(-579.96 -438.95)"/><path class="cls-1" d="M643.26,444.89l.08-.14q0-.12-.2-.12a.83.83,0,0,0-.38.1,1.74,1.74,0,0,0-.36.24,1.38,1.38,0,0,0-.27.32.63.63,0,0,0-.11.32.52.52,0,0,0,.08.27l.15.25a1.79,1.79,0,0,1,.14.25.72.72,0,0,1,.06.3.58.58,0,0,1-.09.34.65.65,0,0,1-.21.19.69.69,0,0,1-.26.09l-.24,0a.59.59,0,0,1-.41-.16.82.82,0,0,1-.24-.39s0-.05,0-.05a.51.51,0,0,1-.12.11l-.14.09q.07.51.84.51a1.78,1.78,0,0,0,.34,0,1.32,1.32,0,0,0,.42-.17,1.22,1.22,0,0,0,.36-.33.88.88,0,0,0,.15-.53.61.61,0,0,0-.09-.31l-.19-.3-.18-.26a.37.37,0,0,1-.06-.2.32.32,0,0,1,.18-.3.7.7,0,0,1,.35-.1.31.31,0,0,1,.31.16s0,0,.06,0Z" transform="translate(-579.96 -438.95)"/></svg>